<svg xmlns="http://www.w3.org/2000/svg" viewBox="0 0 1920 1080"><defs><style>.cls-1{fill:#fff;}.cls-2{fill:#00e1ff;}</style></defs><g id="SÃMBOLO"><path class="cls-1" d="M605,618.51V581.24h4.33v37.27Z"/><path class="cls-1" d="M623.92,618.51h-4.33V581.24h20.76v3.82H623.92v13.67h15.43v3.8H623.92Z"/><path class="cls-1" d="M650.88,618.51h-4.34V581.24H667.3v3.82H650.88v13.67H666.3v3.8H650.88Z"/><path class="cls-1" d="M696.87,618.51l-4.59-11.83H677.34l-4.56,11.83h-4.39L683,581.08h3.9l14.48,37.43ZM691,602.83l-4.36-11.75-.49-1.51c-.23-.69-.47-1.41-.71-2.16s-.43-1.35-.58-1.81c-.17.69-.35,1.39-.55,2.07s-.39,1.33-.57,1.92-.35,1.08-.49,1.49l-4.44,11.75Z"/><path class="cls-1" d="M716.58,581.24a21.85,21.85,0,0,1,7.59,1.13,8.79,8.79,0,0,1,4.47,3.46,10.75,10.75,0,0,1,1.48,5.91,10.35,10.35,0,0,1-1.07,4.94,9.34,9.34,0,0,1-2.8,3.2,14.51,14.51,0,0,1-3.7,1.88l10.22,16.75h-5L718.6,603h-7.76v15.55h-4.33V581.24Zm-.25,3.75h-5.49v14.3h5.92q4.56,0,6.72-1.86a6.84,6.84,0,0,0,2.15-5.48q0-3.81-2.28-5.38C721.83,585.51,719.49,585,716.33,585Z"/><path class="cls-1" d="M749.29,606.38V602.6h12.65v3.78Z"/><path class="cls-1" d="M798.61,584.53a14,14,0,0,0-5.55,1.05,11.48,11.48,0,0,0-4.18,3.06,13.86,13.86,0,0,0-2.64,4.84,23,23,0,0,0,.55,14.52,11.6,11.6,0,0,0,4.38,5.34,13.19,13.19,0,0,0,7.31,1.88,25.13,25.13,0,0,0,4.7-.42,42.82,42.82,0,0,0,4.3-1v3.77a22.25,22.25,0,0,1-4.28,1.13,33,33,0,0,1-5.33.37,17.77,17.77,0,0,1-9.5-2.35,14.53,14.53,0,0,1-5.71-6.67,25,25,0,0,1-1.9-10.18,24,24,0,0,1,1.18-7.73,17.25,17.25,0,0,1,3.47-6.06,15.36,15.36,0,0,1,5.61-3.94,19.79,19.79,0,0,1,7.64-1.39,26.3,26.3,0,0,1,5.45.56,20.4,20.4,0,0,1,4.75,1.61l-1.74,3.67a26.3,26.3,0,0,0-3.91-1.41A16.94,16.94,0,0,0,798.61,584.53Z"/><path class="cls-1" d="M838.94,618.51l-4.59-11.83H819.41l-4.56,11.83h-4.39l14.59-37.43H829l14.48,37.43Zm-5.89-15.68-4.36-11.75-.49-1.51c-.23-.69-.47-1.41-.7-2.16s-.44-1.35-.59-1.81c-.17.69-.35,1.39-.55,2.07s-.39,1.33-.57,1.92-.35,1.08-.49,1.49l-4.43,11.75Z"/><path class="cls-1" d="M865,618.51l-12.52-33h-.21q.11,1.05.18,2.55c.05,1,.09,2.1.13,3.28s.05,2.38.05,3.6v23.56h-4V581.24H855l11.8,31H867l12-31h6.38v37.27h-4.29V594.65q0-1.67.06-3.33c0-1.11.07-2.17.12-3.16s.1-1.86.16-2.59h-.21l-12.67,32.94Z"/><path class="cls-1" d="M905.29,581.24q7.22,0,10.54,2.81t3.33,8.07a12.9,12.9,0,0,1-.78,4.5,9.66,9.66,0,0,1-2.51,3.75,12.22,12.22,0,0,1-4.55,2.55,22.23,22.23,0,0,1-6.9.93h-4.54v14.66h-4.33V581.24Zm-.41,3.69h-5v15.2h4.06a19.79,19.79,0,0,0,5.95-.76,6.66,6.66,0,0,0,3.58-2.49,7.86,7.86,0,0,0,1.2-4.58,6.54,6.54,0,0,0-2.37-5.54C910.72,585.54,908.24,584.93,904.88,584.93Z"/><path class="cls-1" d="M955.16,581.24v24.12a15.1,15.1,0,0,1-1.59,7,11.55,11.55,0,0,1-4.81,4.86A16.55,16.55,0,0,1,940.7,619q-6.91,0-10.52-3.74t-3.6-10v-24h4.36v24.14c0,3.16.83,5.6,2.51,7.32s4.17,2.58,7.51,2.58a11.28,11.28,0,0,0,5.59-1.24,7.66,7.66,0,0,0,3.24-3.47,11.86,11.86,0,0,0,1.06-5.16V581.24Z"/><path class="cls-1" d="M986.06,608.6a9.58,9.58,0,0,1-1.64,5.64,10.27,10.27,0,0,1-4.61,3.56,18,18,0,0,1-7,1.22,36.3,36.3,0,0,1-4-.2,27.19,27.19,0,0,1-3.47-.59,14.81,14.81,0,0,1-2.78-.94v-4.16a32.53,32.53,0,0,0,4.67,1.47,24.16,24.16,0,0,0,5.76.68,12.94,12.94,0,0,0,4.74-.76,6.25,6.25,0,0,0,3-2.16,6.38,6.38,0,0,0,.17-6.61,7.56,7.56,0,0,0-2.8-2.34,38.43,38.43,0,0,0-5.31-2.26,27.36,27.36,0,0,1-4.18-1.85,12.78,12.78,0,0,1-3-2.28,8.66,8.66,0,0,1-1.85-3,11.14,11.14,0,0,1-.62-3.85,8.51,8.51,0,0,1,1.52-5.11,9.53,9.53,0,0,1,4.2-3.26A15.78,15.78,0,0,1,975,580.7a25.94,25.94,0,0,1,5.52.56,24.61,24.61,0,0,1,4.65,1.51l-1.35,3.72a29.65,29.65,0,0,0-4.27-1.4,19,19,0,0,0-4.66-.56,10.3,10.3,0,0,0-4,.7,5.64,5.64,0,0,0-2.51,2,5.25,5.25,0,0,0-.87,3,6,6,0,0,0,.83,3.26,7.12,7.12,0,0,0,2.65,2.31,35.41,35.41,0,0,0,4.84,2.1,35.16,35.16,0,0,1,5.58,2.54,9.84,9.84,0,0,1,3.49,3.26A9.11,9.11,0,0,1,986.06,608.6Z"/><path class="cls-1" d="M1001.84,628.33a12.39,12.39,0,0,1-2.24-.18,7.67,7.67,0,0,1-1.66-.48V624a12.64,12.64,0,0,0,1.76.4,14.42,14.42,0,0,0,2,.14,6.06,6.06,0,0,0,2.63-.57,4.15,4.15,0,0,0,1.91-1.91,8,8,0,0,0,.71-3.72V581.24h4.36V618a12.7,12.7,0,0,1-1.16,5.79,7.7,7.7,0,0,1-3.29,3.43A10.65,10.65,0,0,1,1001.84,628.33Z"/><path class="cls-1" d="M1049.45,581.24v24.12a15,15,0,0,1-1.6,7,11.47,11.47,0,0,1-4.8,4.86A16.55,16.55,0,0,1,1035,619q-6.91,0-10.52-3.74t-3.61-10v-24h4.36v24.14q0,4.74,2.52,7.32t7.51,2.58a11.28,11.28,0,0,0,5.59-1.24,7.76,7.76,0,0,0,3.24-3.47,11.86,11.86,0,0,0,1.06-5.16V581.24Zm-6.86-12.09v.51a21.1,21.1,0,0,1-1.39,1.77c-.59.69-1.24,1.41-2,2.17s-1.43,1.48-2.16,2.15-1.39,1.27-2,1.76h-2.83v-.61c.55-.64,1.14-1.42,1.79-2.33s1.27-1.84,1.88-2.81,1.12-1.83,1.53-2.61Z"/><path class="cls-1" d="M1059.31,618.51V581.24h4.34v33.4h16.55v3.87Z"/><path class="cls-1" d="M1086.57,618.51V581.24h4.34v37.27Z"/><path class="cls-1" d="M1133.49,599.82a26.45,26.45,0,0,1-1.1,7.85,17.13,17.13,0,0,1-3.25,6.06,14.49,14.49,0,0,1-5.34,3.92,18.68,18.68,0,0,1-7.4,1.37,19.29,19.29,0,0,1-7.56-1.37,14,14,0,0,1-5.35-3.93,17,17,0,0,1-3.19-6.09,27.62,27.62,0,0,1-1.06-7.86,24.81,24.81,0,0,1,1.89-10,14.61,14.61,0,0,1,5.72-6.7,17.86,17.86,0,0,1,9.63-2.4,17.25,17.25,0,0,1,9.32,2.37,15.06,15.06,0,0,1,5.74,6.67A24.47,24.47,0,0,1,1133.49,599.82Zm-29.68,0a22.56,22.56,0,0,0,1.35,8.21,11.12,11.12,0,0,0,4.14,5.36,14.28,14.28,0,0,0,14.2,0,11,11,0,0,0,4.1-5.36,23,23,0,0,0,1.32-8.21q0-7.22-3-11.28t-9.42-4.07a12.67,12.67,0,0,0-7.14,1.87,11,11,0,0,0-4.17,5.29A22.12,22.12,0,0,0,1103.81,599.82Z"/><path class="cls-1" d="M1184.94,599.52a21.83,21.83,0,0,1-2.3,10.52,14.71,14.71,0,0,1-6.64,6.34,23.78,23.78,0,0,1-10.54,2.13h-10.12V581.24h11.24a21.52,21.52,0,0,1,9.79,2.07,14.65,14.65,0,0,1,6.34,6.15A20.65,20.65,0,0,1,1184.94,599.52Zm-4.56.15a18.2,18.2,0,0,0-1.67-8.29,10.75,10.75,0,0,0-4.9-4.85,17.72,17.72,0,0,0-7.89-1.6h-6.25v29.86H1165q7.69,0,11.56-3.8T1180.38,599.67Z"/><path class="cls-1" d="M1214,618.51h-20.75V581.24H1214v3.82h-16.42v12.06H1213v3.78h-15.48v13.79H1214Z"/><path class="cls-1" d="M1251.74,584.53a14,14,0,0,0-5.54,1.05,11.43,11.43,0,0,0-4.19,3.06,14,14,0,0,0-2.63,4.84,20.33,20.33,0,0,0-.92,6.37,20.92,20.92,0,0,0,1.46,8.15,11.56,11.56,0,0,0,4.39,5.34,13.16,13.16,0,0,0,7.3,1.88,25.16,25.16,0,0,0,4.71-.42,42,42,0,0,0,4.29-1v3.77a22.06,22.06,0,0,1-4.28,1.13,32.88,32.88,0,0,1-5.33.37,17.77,17.77,0,0,1-9.5-2.35,14.58,14.58,0,0,1-5.71-6.67,25.2,25.2,0,0,1-1.9-10.18,24,24,0,0,1,1.19-7.73,17.25,17.25,0,0,1,3.47-6.06,15.36,15.36,0,0,1,5.61-3.94,19.74,19.74,0,0,1,7.63-1.39,26.33,26.33,0,0,1,5.46.56,20.31,20.31,0,0,1,4.74,1.61l-1.73,3.67a26.43,26.43,0,0,0-3.92-1.41A16.89,16.89,0,0,0,1251.74,584.53Z"/><path class="cls-1" d="M1292.08,618.51l-4.59-11.83h-14.94L1268,618.51h-4.38l14.58-37.43h3.9l14.49,37.43Zm-5.89-15.68-4.36-11.75-.5-1.51c-.23-.69-.46-1.41-.7-2.16s-.43-1.35-.59-1.81c-.17.69-.35,1.39-.54,2.07s-.39,1.33-.58,1.92l-.48,1.49L1274,602.83Z"/><path class="cls-1" d="M1322.75,608.6a9.58,9.58,0,0,1-1.64,5.64,10.27,10.27,0,0,1-4.61,3.56,18,18,0,0,1-7,1.22,36.3,36.3,0,0,1-4-.2,27.19,27.19,0,0,1-3.47-.59,14.81,14.81,0,0,1-2.78-.94v-4.16a32.53,32.53,0,0,0,4.67,1.47,24.1,24.1,0,0,0,5.76.68,12.94,12.94,0,0,0,4.74-.76,6.25,6.25,0,0,0,3-2.16,6.38,6.38,0,0,0,.17-6.61,7.56,7.56,0,0,0-2.8-2.34,38.43,38.43,0,0,0-5.31-2.26,27.36,27.36,0,0,1-4.18-1.85,12.78,12.78,0,0,1-3-2.28,8.66,8.66,0,0,1-1.85-3,11.14,11.14,0,0,1-.62-3.85,8.58,8.58,0,0,1,1.51-5.11,9.62,9.62,0,0,1,4.21-3.26,15.73,15.73,0,0,1,6.18-1.14,26,26,0,0,1,5.53.56,24.61,24.61,0,0,1,4.65,1.51l-1.35,3.72a29.65,29.65,0,0,0-4.27-1.4,19,19,0,0,0-4.66-.56,10.3,10.3,0,0,0-4,.7,5.64,5.64,0,0,0-2.51,2,5.25,5.25,0,0,0-.87,3,6,6,0,0,0,.83,3.26,7.12,7.12,0,0,0,2.65,2.31,35.41,35.41,0,0,0,4.84,2.1,35.16,35.16,0,0,1,5.58,2.54,9.84,9.84,0,0,1,3.49,3.26A9.11,9.11,0,0,1,1322.75,608.6Z"/><path class="cls-1" d="M1341.8,618.51h-4.36V585.06h-11.73v-3.82h27.77v3.82H1341.8Z"/><path class="cls-1" d="M1359.11,618.51V581.24h4.33v37.27Z"/><path class="cls-1" d="M1373.69,618.51V581.24H1378v33.4h16.55v3.87Z"/><path class="cls-1" d="M1429.2,618.51h-4.33V601h-19.59v17.56H1401V581.24h4.33v15.88h19.59V581.24h4.33Z"/><path class="cls-1" d="M1471.78,599.82a26.13,26.13,0,0,1-1.1,7.85,17,17,0,0,1-3.25,6.06,14.33,14.33,0,0,1-5.34,3.92,18.63,18.63,0,0,1-7.39,1.37,19.29,19.29,0,0,1-7.56-1.37,14.08,14.08,0,0,1-5.36-3.93,16.84,16.84,0,0,1-3.18-6.09,27.27,27.27,0,0,1-1.06-7.86,24.81,24.81,0,0,1,1.89-10,14.55,14.55,0,0,1,5.72-6.7,17.85,17.85,0,0,1,9.62-2.4,17.23,17.23,0,0,1,9.32,2.37,14.93,14.93,0,0,1,5.74,6.67A24.31,24.31,0,0,1,1471.78,599.82Zm-29.68,0a22.56,22.56,0,0,0,1.35,8.21,11.13,11.13,0,0,0,4.15,5.36,14.28,14.28,0,0,0,14.2,0,11,11,0,0,0,4.09-5.36,22.79,22.79,0,0,0,1.33-8.21q0-7.22-3-11.28t-9.43-4.07a12.62,12.62,0,0,0-7.13,1.87,11,11,0,0,0-4.17,5.29A22.11,22.11,0,0,0,1442.1,599.82Z"/><path class="cls-1" d="M1501.1,608.6a9.58,9.58,0,0,1-1.64,5.64,10.29,10.29,0,0,1-4.6,3.56,18.11,18.11,0,0,1-7,1.22,36.35,36.35,0,0,1-4-.2,27.19,27.19,0,0,1-3.47-.59,14.46,14.46,0,0,1-2.77-.94v-4.16a32.36,32.36,0,0,0,4.66,1.47,24.16,24.16,0,0,0,5.76.68,13,13,0,0,0,4.75-.76,6.27,6.27,0,0,0,2.94-2.16,6.38,6.38,0,0,0,.17-6.61,7.44,7.44,0,0,0-2.79-2.34,39.19,39.19,0,0,0-5.32-2.26,27.36,27.36,0,0,1-4.18-1.85,12.78,12.78,0,0,1-3-2.28,8.66,8.66,0,0,1-1.85-3,11.14,11.14,0,0,1-.62-3.85,8.58,8.58,0,0,1,1.52-5.11,9.53,9.53,0,0,1,4.2-3.26,15.78,15.78,0,0,1,6.19-1.14,25.8,25.8,0,0,1,5.52.56,24.61,24.61,0,0,1,4.65,1.51l-1.35,3.72a29.25,29.25,0,0,0-4.27-1.4,19,19,0,0,0-4.65-.56,10.32,10.32,0,0,0-4,.7,5.64,5.64,0,0,0-2.51,2,5.25,5.25,0,0,0-.86,3,6,6,0,0,0,.82,3.26,7.15,7.15,0,0,0,2.66,2.31,34.67,34.67,0,0,0,4.83,2.1,35.16,35.16,0,0,1,5.58,2.54,9.87,9.87,0,0,1,3.5,3.26A9.2,9.2,0,0,1,1501.1,608.6Z"/><path class="cls-2" d="M504.81,469.54l.91-1.37c23.57-36.11,28.68-70,14.38-95.4s-45.91-38.6-89-37.21c-1.05,0-2.11.08-3.16.13-.95-2-1.92-3.92-2.91-5.83-19.91-38.26-46.93-59.33-76.09-59.33-17.28,0-33.81,7.41-48.56,21.41A16.61,16.61,0,0,0,295,291a16.76,16.76,0,0,0-14.4,25.37q-4,6.31-7.74,13.45-1.36,2.64-2.68,5.37c-.88-.05-1.76-.1-2.64-.13-43.12-1.64-74.79,11.39-89.23,36.71s-9.52,59.24,13.86,95.49c.29.46.6.91.9,1.37l-.91,1.36c-14.42,22.09-21.92,43.33-22.31,62.32a16.77,16.77,0,0,0,7.05,32h.28l.59,1.11c13.61,24.18,42.89,37.31,82.84,37.31,2,0,4.1,0,6.18-.1,1.73-.06,3.48-.14,5.23-.25l.84,1.65c19.92,38.26,46.94,59.33,76.09,59.33S405.1,642.31,425,604.05l.6-1.19c1.59.1,3.16.19,4.72.25q3.66.14,7.2.14c18.2,0,34.18-2.77,47.45-8.1a16.77,16.77,0,0,0,26-14,16.9,16.9,0,0,0-.26-2.86,60.12,60.12,0,0,0,8.87-11.87c14.44-25.32,9.52-59.23-13.85-95.48ZM437.32,350.1c34.38,0,59.13,10.5,70,29.85,11.06,19.66,6.89,46.8-11.68,76.74a280.92,280.92,0,0,0-45.31-45.95,287,287,0,0,0-16.13-60.59C435.26,350.13,436.3,350.1,437.32,350.1ZM416.8,587.4a251.42,251.42,0,0,1-47.59-10.3c10.59-4.69,21.15-10,31.57-15.85a367.39,367.39,0,0,0,31.11-19.58A246.24,246.24,0,0,1,416.8,587.4Zm-23.2-38.91a349.54,349.54,0,0,1-45,21.31,355.51,355.51,0,0,1-86.8-49.61,355.84,355.84,0,0,1-.67-101.91,356.11,356.11,0,0,1,88-49.88,355.7,355.7,0,0,1,87.51,50.18A349.48,349.48,0,0,1,440,467,348.41,348.41,0,0,1,436,520.49,350.68,350.68,0,0,1,393.6,548.49ZM280.85,587a246.26,246.26,0,0,1-14.94-45.53c9.71,6.88,19.95,13.42,30.64,19.51,10.39,5.93,20.92,11.27,31.48,16A252.16,252.16,0,0,1,280.85,587ZM245.27,506.3a248.29,248.29,0,0,1-34.38-37.58,247.72,247.72,0,0,1,33.94-36.81c-1.09,11.45-1.65,23.17-1.65,35A367.86,367.86,0,0,0,245.27,506.3Zm34-155.69a250.31,250.31,0,0,1,49.38,10.5c-10.59,4.69-21.15,10-31.57,15.84a370.76,370.76,0,0,0-32.22,20.37A254.8,254.8,0,0,1,279.25,350.61Zm153.8,46.93a372,372,0,0,0-31.75-20.3c-10.39-5.92-20.92-11.26-31.48-16a250.56,250.56,0,0,1,49-10.17A255.67,255.67,0,0,1,433.05,397.54Zm20,34.8A248.2,248.2,0,0,1,487,469.49a248.55,248.55,0,0,1-34.43,37.24A367.94,367.94,0,0,0,454.66,467C454.66,455.23,454.12,443.66,453.05,432.34ZM285.83,336.62q3.36-6.48,7-12.18a16.62,16.62,0,0,0,18.93-16.62,16.67,16.67,0,0,0-1-5.59c11.89-11.16,24.86-17.05,38.15-17.05,23.43,0,45.83,18.26,63.1,51.44l.21.42a283.63,283.63,0,0,0-63,15.71,282.38,282.38,0,0,0-63.43-16.12ZM191,379.07C201.9,360,226.36,349.6,260.25,349.6c1.18,0,2.37,0,3.57,0a287.24,287.24,0,0,0-16.27,60.76,280.56,280.56,0,0,0-45.29,45.47C183.85,425.83,179.83,398.66,191,379.07Zm-.5,179.19c-.11-.18-.2-.37-.3-.55a16.73,16.73,0,0,0-5.75-25.1c.3-15.23,6.27-32.63,17.73-51.1a281.18,281.18,0,0,0,46.13,46.62,279.34,279.34,0,0,0,17,59.9C228.45,589,201.9,578.5,190.51,558.26Zm158.41,90.48c-22.56,0-44.17-17-61.16-47.85a285.36,285.36,0,0,0,60.84-15.43,284.27,284.27,0,0,0,61.26,15.84C392.9,631.93,371.38,648.74,348.92,648.74Zm157.92-89.6a45.67,45.67,0,0,1-5,7.08,16.75,16.75,0,0,0-24.46,14.9c0,.42,0,.84.06,1.25-12.35,4.56-27.58,6.68-45.17,6.14a278.46,278.46,0,0,0,17.19-60,281.66,281.66,0,0,0,46.12-46.14C514,512.38,518,539.55,506.84,559.14Z"/><circle class="cls-2" cx="347.41" cy="469.22" r="33.45" transform="translate(-70.67 61.71) rotate(-9.22)"/><path class="cls-1" d="M623,428.5h-15.9V352.25h43.7V365.5H623v19.66h25.87v13.2H623Z"/><path class="cls-1" d="M709.62,428.5H665.71V352.25h43.91V365.5H681.88v16.74h25.81v13.25H681.88v19.66h27.74Z"/><path class="cls-1" d="M725.53,428.5V352.25h16.16V428.5Z"/><path class="cls-1" d="M783.1,352.25q10.38,0,17.14,2.51a19.68,19.68,0,0,1,10,7.56q3.29,5.06,3.28,12.78a19.92,19.92,0,0,1-2,9.12,20.77,20.77,0,0,1-5.22,6.63,30.73,30.73,0,0,1-7,4.43L821.8,428.5H803.86l-18.2-29.26h-8.61V428.5H760.89V352.25ZM782,365.5h-4.91v20.6h5.22q8,0,11.5-2.68t3.47-7.91c0-3.61-1.25-6.18-3.73-7.71S787.17,365.5,782,365.5Z"/><path class="cls-1" d="M878.08,428.5l-5.53-18.15h-27.8l-5.53,18.15H821.8l26.91-76.56h19.77l27,76.56Zm-9.39-31.71-5.53-17.73q-.52-1.77-1.38-4.56t-1.72-5.69c-.58-1.93-1-3.6-1.39-5q-.51,2.14-1.43,5.29t-1.75,6q-.82,2.82-1.2,4l-5.47,17.73Z"/><path class="cls-1" d="M996.1,389.65q0,12.89-4.93,21.51a31.14,31.14,0,0,1-14.27,13q-9.33,4.35-22.47,4.35h-21.6V352.25h23.94q12,0,20.81,4.25a31.16,31.16,0,0,1,13.67,12.57Q996.1,377.4,996.1,389.65Zm-16.8.41q0-8.44-2.47-13.89a16.7,16.7,0,0,0-7.3-8.06,24.81,24.81,0,0,0-11.92-2.61H949v49.65h6.94q11.84,0,17.6-6.31T979.3,390.06Z"/><path class="cls-1" d="M1055.81,428.5H1011.9V352.25h43.91V365.5h-27.74v16.74h25.81v13.25h-25.81v19.66h27.74Z"/><path class="cls-1" d="M1131.85,364.61a18,18,0,0,0-8.21,1.8,16.31,16.31,0,0,0-6,5.19,24.66,24.66,0,0,0-3.68,8.19,43.06,43.06,0,0,0-1.25,10.8,41.73,41.73,0,0,0,2,13.79,17.33,17.33,0,0,0,6.23,8.71q4.23,3,10.9,3a42.85,42.85,0,0,0,9.31-1,89.84,89.84,0,0,0,10.14-3v13.56a50.34,50.34,0,0,1-10,3,60.23,60.23,0,0,1-11,.91q-11.79,0-19.38-4.87A29.1,29.1,0,0,1,1099.72,411a53.25,53.25,0,0,1-3.65-20.52,51,51,0,0,1,2.35-15.85,35.92,35.92,0,0,1,6.89-12.47,30.34,30.34,0,0,1,11.21-8.13,38.56,38.56,0,0,1,15.33-2.87,47,47,0,0,1,11.4,1.43,57.75,57.75,0,0,1,10.92,3.94L1149,369.67a87.68,87.68,0,0,0-8.61-3.54A25.62,25.62,0,0,0,1131.85,364.61Z"/><path class="cls-1" d="M1167.52,428.5V352.25h16.17V428.5Z"/><path class="cls-1" d="M1234.8,328.73a50.54,50.54,0,0,0,3.94,5.32c1.62,1.95,3.28,3.84,5,5.69s3.18,3.41,4.43,4.69v1.41h-10.53q-2.82-1.66-6.13-4a42.06,42.06,0,0,1-6.08-5.19,45.35,45.35,0,0,1-6,5.14q-3.2,2.26-6,4h-10.59v-1.41c1.32-1.32,2.84-2.89,4.54-4.72s3.36-3.71,5-5.66a47.26,47.26,0,0,0,3.85-5.32Zm12,99.77h-43.92V352.25h43.92V365.5h-27.75v16.74h25.82v13.25h-25.82v19.66h27.75Z"/><path class="cls-1" d="M1330.35,428.5H1309.8l-33.17-57.68h-.47q.21,3.6.36,7.25c.11,2.43.21,4.86.32,7.27s.21,4.85.31,7.28V428.5H1262.7V352.25h20.4l33.11,57.11h.37q-.11-3.54-.26-7c-.11-2.33-.2-4.66-.29-7s-.17-4.66-.24-7V352.25h14.56Z"/><path class="cls-1" d="M1381.92,364.61a18,18,0,0,0-8.21,1.8,16.39,16.39,0,0,0-6,5.19,24.65,24.65,0,0,0-3.67,8.19,42.59,42.59,0,0,0-1.26,10.8,41.73,41.73,0,0,0,2,13.79,17.39,17.39,0,0,0,6.23,8.71q4.23,3,10.9,3a42.85,42.85,0,0,0,9.31-1,90,90,0,0,0,10.15-3v13.56a50.74,50.74,0,0,1-10,3,60.35,60.35,0,0,1-11,.91q-11.79,0-19.37-4.87A29,29,0,0,1,1349.8,411a53.07,53.07,0,0,1-3.65-20.52,51,51,0,0,1,2.34-15.85,35.92,35.92,0,0,1,6.89-12.47,30.34,30.34,0,0,1,11.21-8.13,38.56,38.56,0,0,1,15.33-2.87,47,47,0,0,1,11.4,1.43,57.84,57.84,0,0,1,10.93,3.94L1399,369.67a88.54,88.54,0,0,0-8.6-3.54A25.67,25.67,0,0,0,1381.92,364.61Z"/><path class="cls-1" d="M1417.6,428.5V352.25h16.16V428.5Z"/><path class="cls-1" d="M1499.63,428.5l-5.52-18.15h-27.8l-5.53,18.15h-17.42l26.91-76.56H1490l27,76.56Zm-9.38-31.71-5.53-17.73q-.53-1.77-1.38-4.56t-1.72-5.69c-.58-1.93-1-3.6-1.39-5q-.51,2.14-1.43,5.29t-1.75,6q-.83,2.82-1.2,4l-5.47,17.73Z"/><path class="cls-1" d="M1571.66,407.33a20.11,20.11,0,0,1-12.86,19.5,38.38,38.38,0,0,1-15.25,2.71,56.25,56.25,0,0,1-7.75-.52,50.32,50.32,0,0,1-7.25-1.54A42.57,42.57,0,0,1,1522,425v-15q5.41,2.4,11.26,4.33a36.61,36.61,0,0,0,11.58,1.93,16.33,16.33,0,0,0,6.39-1,7.27,7.27,0,0,0,3.52-2.87,7.93,7.93,0,0,0,1.09-4.17,6.84,6.84,0,0,0-1.93-4.9,20,20,0,0,0-5.29-3.81q-3.36-1.77-7.59-3.81-2.65-1.24-5.79-3a33.16,33.16,0,0,1-5.94-4.4,21,21,0,0,1-4.62-6.34,20.44,20.44,0,0,1-1.8-8.95,21.16,21.16,0,0,1,3.13-11.68,20,20,0,0,1,9-7.43,33.62,33.62,0,0,1,13.74-2.58,45.63,45.63,0,0,1,11.34,1.38,72.1,72.1,0,0,1,11.29,4l-5.21,12.57a89.36,89.36,0,0,0-9.44-3.31,31,31,0,0,0-8.5-1.18,12.59,12.59,0,0,0-5.17,1,7.19,7.19,0,0,0-3.23,2.71,7.45,7.45,0,0,0-1.09,4,6.73,6.73,0,0,0,1.59,4.57,16.87,16.87,0,0,0,4.79,3.57q3.21,1.72,8,4a64.2,64.2,0,0,1,10,5.77,21.72,21.72,0,0,1,6.39,7A20.51,20.51,0,0,1,1571.66,407.33Z"/><path class="cls-1" d="M651.08,540.72H607.17V464.47h43.91v13.25H623.34v16.74h25.81V507.7H623.34v19.67h27.74Z"/><path class="cls-1" d="M724.15,540.72H708v-62.8h-20.7V464.47h57.57v13.45h-20.7Z"/><path class="cls-1" d="M800.5,540.72H756.59V464.47H800.5v13.25H772.75v16.74h25.82V507.7H772.75v19.67H800.5Z"/><path class="cls-1" d="M848.79,476.83a18,18,0,0,0-8.21,1.8,16.39,16.39,0,0,0-6,5.19,24.65,24.65,0,0,0-3.67,8.19,42.51,42.51,0,0,0-1.26,10.79,41.79,41.79,0,0,0,2,13.8,17.43,17.43,0,0,0,6.23,8.71q4.23,3,10.9,3a42.24,42.24,0,0,0,9.31-1,87.76,87.76,0,0,0,10.15-3v13.56a50.54,50.54,0,0,1-10,3,60.35,60.35,0,0,1-11,.91q-11.79,0-19.37-4.88a29,29,0,0,1-11.24-13.66A53.1,53.1,0,0,1,813,502.7a51.1,51.1,0,0,1,2.34-15.86,35.87,35.87,0,0,1,6.89-12.46,30.47,30.47,0,0,1,11.21-8.14,38.56,38.56,0,0,1,15.33-2.87,46.51,46.51,0,0,1,11.4,1.44,57.16,57.16,0,0,1,10.93,3.94l-5.22,13.14a86.2,86.2,0,0,0-8.6-3.55A25.66,25.66,0,0,0,848.79,476.83Z"/><path class="cls-1" d="M952.11,540.72H931.56L898.39,483h-.47c.14,2.39.26,4.81.37,7.24s.21,4.86.31,7.28.21,4.84.31,7.28v35.88H884.47V464.47h20.39L938,521.58h.36c-.07-2.37-.16-4.71-.26-7s-.2-4.66-.29-7-.16-4.66-.23-7V464.47h14.55Z"/><path class="cls-1" d="M1040.51,502.49a55.21,55.21,0,0,1-2.19,16,34.08,34.08,0,0,1-6.65,12.43,29,29,0,0,1-11.29,8A48.25,48.25,0,0,1,988,539a29,29,0,0,1-11.29-8,34.06,34.06,0,0,1-6.65-12.46,55.57,55.57,0,0,1-2.19-16.12,50.64,50.64,0,0,1,3.89-20.62,29.31,29.31,0,0,1,12-13.64q8.09-4.85,20.55-4.85t20.41,4.85a29.42,29.42,0,0,1,11.89,13.66A51,51,0,0,1,1040.51,502.49Zm-55.65,0a41.83,41.83,0,0,0,2,13.74,17.86,17.86,0,0,0,6.28,8.87q4.27,3.1,11.06,3.1t11.16-3.1a17.54,17.54,0,0,0,6.23-8.87,42.72,42.72,0,0,0,2-13.74q0-12-4.49-18.88t-14.75-6.88q-6.84,0-11.14,3.1a17.75,17.75,0,0,0-6.31,8.86A42.08,42.08,0,0,0,984.86,502.49Z"/><path class="cls-1" d="M1056.31,540.72V464.47h16.17v62.9h30.93v13.35Z"/><path class="cls-1" d="M1185.86,502.49a55.21,55.21,0,0,1-2.19,16A34.08,34.08,0,0,1,1177,531a29,29,0,0,1-11.29,8,48.25,48.25,0,0,1-32.34,0,29.06,29.06,0,0,1-11.29-8,34.06,34.06,0,0,1-6.65-12.46,55.57,55.57,0,0,1-2.19-16.12,50.64,50.64,0,0,1,3.89-20.62,29.31,29.31,0,0,1,12-13.64q8.09-4.85,20.55-4.85t20.41,4.85A29.42,29.42,0,0,1,1182,481.78,51,51,0,0,1,1185.86,502.49Zm-55.65,0a41.83,41.83,0,0,0,2,13.74,17.86,17.86,0,0,0,6.28,8.87q4.29,3.1,11.06,3.1t11.16-3.1a17.54,17.54,0,0,0,6.23-8.87,42.72,42.72,0,0,0,2-13.74q0-12-4.49-18.88t-14.75-6.88q-6.84,0-11.14,3.1a17.75,17.75,0,0,0-6.31,8.86A42.08,42.08,0,0,0,1130.21,502.49Z"/><path class="cls-1" d="M1230.61,497.9h30.25v39.53a93.61,93.61,0,0,1-12.47,3.16,82.83,82.83,0,0,1-14.65,1.17q-11.37,0-19.3-4.49a28.84,28.84,0,0,1-12-13.24q-4.12-8.76-4.12-21.54,0-12,4.62-20.76a32.16,32.16,0,0,1,13.5-13.56q8.89-4.8,21.73-4.8a55.08,55.08,0,0,1,11.94,1.31,58.58,58.58,0,0,1,10.69,3.39L1255.38,481a41.25,41.25,0,0,0-8-3,36.18,36.18,0,0,0-9.39-1.2,22.71,22.71,0,0,0-12.23,3.23,21.63,21.63,0,0,0-8,9.05,30.93,30.93,0,0,0-2.84,13.69,39.78,39.78,0,0,0,2,13.22,18.72,18.72,0,0,0,6.42,9q4.38,3.26,11.42,3.25a43.13,43.13,0,0,0,5.81-.33c1.59-.23,3.07-.47,4.46-.71V511.35h-14.44Z"/><path class="cls-1" d="M1279,540.72V464.47h16.17v76.25Z"/><path class="cls-1" d="M1361,540.72l-5.53-18.15h-27.79l-5.53,18.15h-17.42l26.91-76.56h19.77l27,76.56ZM1351.65,509l-5.52-17.73c-.35-1.19-.81-2.71-1.39-4.57S1343.6,483,1343,481s-1-3.61-1.38-5q-.53,2.13-1.43,5.29t-1.75,6l-1.2,4L1331.78,509Z"/></g></svg>