<svg xmlns="http://www.w3.org/2000/svg" viewBox="0 0 1920 1080"><defs><style>.cls-1{fill:#00e1ff;}.cls-2{fill:#f2f2f2;}</style></defs><g id="SÃMBOLO"><path class="cls-1" d="M1081.72,366.69l.91-1.36c23.57-36.12,28.68-70,14.39-95.41s-45.91-38.62-89-37.21c-1.06,0-2.11.08-3.17.13-1-2-1.91-3.92-2.91-5.83C982,188.75,955,167.68,925.84,167.68c-17.29,0-33.82,7.41-48.57,21.41a16.56,16.56,0,0,0-5.39-.9,16.75,16.75,0,0,0-14.39,25.37q-4,6.31-7.74,13.45-1.38,2.64-2.68,5.37c-.89,0-1.77-.1-2.65-.13-43.1-1.64-74.78,11.39-89.22,36.71s-9.52,59.24,13.85,95.49c.29.46.6.91.9,1.37l-.91,1.37c-23.57,36.11-28.68,70-14.39,95.4,13.61,24.18,42.89,37.31,82.84,37.31,2,0,4.1,0,6.19-.1,1.73-.05,3.48-.14,5.23-.25.28.55.55,1.11.84,1.65,19.91,38.26,46.93,59.33,76.09,59.33s56.17-21.07,76.08-59.33c.21-.39.4-.79.61-1.18,1.58.09,3.15.18,4.72.24q3.64.14,7.19.14c18.21,0,34.18-2.77,47.45-8.1a16.76,16.76,0,0,0,26-14,17,17,0,0,0-.26-2.87,60.06,60.06,0,0,0,8.87-11.86c14.45-25.33,9.53-59.24-13.85-95.49C1082.33,367.6,1082,367.15,1081.72,366.69Zm-67.49-119.44c34.39,0,59.13,10.5,70,29.85,11.06,19.66,6.89,46.8-11.68,76.75a280.52,280.52,0,0,0-45.31-46,287,287,0,0,0-16.13-60.6C1012.17,247.28,1013.22,247.25,1014.23,247.25ZM993.72,484.56a252.09,252.09,0,0,1-47.59-10.31c10.58-4.69,21.14-10,31.56-15.84,10.86-6.11,21.26-12.67,31.11-19.59A245.6,245.6,0,0,1,993.72,484.56Zm-23.21-38.92a351,351,0,0,1-45,21.32,356.56,356.56,0,0,1-86.79-49.61,355.45,355.45,0,0,1-.68-101.92,347.12,347.12,0,0,1,43.08-28.56,351,351,0,0,1,45-21.32,355.7,355.7,0,0,1,87.51,50.18,355.57,355.57,0,0,1-.76,101.91A349.11,349.11,0,0,1,970.51,445.64ZM857.76,484.13a247,247,0,0,1-14.94-45.53q14.56,10.33,30.64,19.51c10.39,5.93,20.92,11.27,31.48,16A252,252,0,0,1,857.76,484.13Zm-35.58-80.68a249.34,249.34,0,0,1-34.38-37.58,247.8,247.8,0,0,1,34-36.81c-1.09,11.45-1.66,23.17-1.66,35.05A370.48,370.48,0,0,0,822.18,403.45Zm34-155.69a250.16,250.16,0,0,1,49.38,10.5C895,263,884.4,268.24,874,274.1a367.76,367.76,0,0,0-32.22,20.37A254.26,254.26,0,0,1,856.16,247.76ZM1010,294.69a367.92,367.92,0,0,0-31.75-20.29c-10.39-5.93-20.92-11.27-31.48-16a250.76,250.76,0,0,1,49-10.18A255.13,255.13,0,0,1,1010,294.69Zm20,34.8a248.11,248.11,0,0,1,33.9,37.15,248.56,248.56,0,0,1-34.43,37.25,368,368,0,0,0,2.14-39.78C1031.58,352.38,1031,340.81,1030,329.49ZM862.74,233.77q3.36-6.47,7-12.17a17,17,0,0,0,2.15.15,16.75,16.75,0,0,0,15.81-22.37c11.88-11.16,24.85-17,38.15-17,23.42,0,45.83,18.27,63.09,51.44.07.14.14.29.22.43a283,283,0,0,0-63,15.7,282.71,282.71,0,0,0-63.42-16.12Zm-94.82,42.45c10.9-19.11,35.35-29.46,69.25-29.46,1.18,0,2.37,0,3.57,0a286.39,286.39,0,0,0-16.28,60.75A280.61,280.61,0,0,0,779.17,353C760.77,323,756.75,295.81,767.92,276.22Zm-.5,179.19c-11.06-19.66-6.89-46.8,11.68-76.75a281.18,281.18,0,0,0,46.13,46.62,279.6,279.6,0,0,0,17,59.91C805.37,486.2,778.81,475.65,767.42,455.41Zm158.42,90.48c-22.56,0-44.18-17-61.17-47.85a285.06,285.06,0,0,0,60.84-15.43,284.57,284.57,0,0,0,61.26,15.84C969.82,529.08,948.29,545.89,925.84,545.89Zm157.91-89.6a45.67,45.67,0,0,1-5,7.08,16.77,16.77,0,0,0-24.46,14.91c0,.42,0,.83.07,1.24-12.36,4.57-27.59,6.69-45.17,6.14a279.1,279.1,0,0,0,17.18-60,281.32,281.32,0,0,0,46.12-46.15C1090.91,409.53,1094.92,436.7,1083.75,456.29Z"/><circle class="cls-1" cx="924.33" cy="366.37" r="33.46"/><path class="cls-2" d="M482.28,713.2H466.37V637h43.71V650.2h-27.8v19.67h25.87v13.19H482.28Z"/><path class="cls-2" d="M568.91,713.2H525V637h43.92V650.2H541.16v16.74H567v13.25H541.16v19.66h27.75Z"/><path class="cls-2" d="M584.81,713.2V637H601V713.2Z"/><path class="cls-2" d="M642.39,637q10.38,0,17.13,2.5a19.59,19.59,0,0,1,10,7.56q3.29,5.07,3.29,12.78a20,20,0,0,1-2,9.13,21,21,0,0,1-5.22,6.62,30.45,30.45,0,0,1-7,4.43l22.43,33.22H663.15L645,684h-8.61V713.2H620.17V637Zm-1.15,13.24h-4.9v20.6h5.22q8,0,11.5-2.68c2.31-1.79,3.46-4.43,3.46-7.9s-1.24-6.19-3.73-7.72S646.46,650.2,641.24,650.2Z"/><path class="cls-2" d="M737.36,713.2l-5.53-18.14H704l-5.53,18.14H681.09L708,636.64h19.77l27,76.56ZM728,681.5l-5.52-17.74c-.35-1.18-.81-2.7-1.39-4.56s-1.14-3.75-1.72-5.68-1-3.61-1.38-5c-.35,1.43-.83,3.19-1.43,5.3s-1.19,4.09-1.75,6l-1.2,4L708.1,681.5Z"/><path class="cls-2" d="M855.38,674.35q0,12.89-4.92,21.51a31.08,31.08,0,0,1-14.27,13q-9.33,4.35-22.48,4.35H792.12V637h23.94q12,0,20.81,4.25a31,31,0,0,1,13.66,12.57Q855.39,662.09,855.38,674.35Zm-16.79.42q0-8.44-2.48-13.9a16.65,16.65,0,0,0-7.3-8.06,24.77,24.77,0,0,0-11.91-2.61h-8.61v49.65h6.94q11.84,0,17.6-6.31T838.59,674.77Z"/><path class="cls-2" d="M915.1,713.2H871.19V637H915.1V650.2H887.35v16.74h25.82v13.25H887.35v19.66H915.1Z"/><path class="cls-2" d="M991.14,649.32a18,18,0,0,0-8.22,1.8,16.28,16.28,0,0,0-6,5.19,24.5,24.5,0,0,0-3.68,8.18,43.06,43.06,0,0,0-1.25,10.8,41.69,41.69,0,0,0,2,13.79,17.27,17.27,0,0,0,6.23,8.71q4.21,3,10.9,3a42.92,42.92,0,0,0,9.31-1,91.79,91.79,0,0,0,10.14-3v13.56a50.34,50.34,0,0,1-10,3,61.21,61.21,0,0,1-11,.91q-11.79,0-19.38-4.88A29,29,0,0,1,959,695.71a53.31,53.31,0,0,1-3.65-20.53,50.74,50.74,0,0,1,2.35-15.85,35.85,35.85,0,0,1,6.88-12.46,30.29,30.29,0,0,1,11.22-8.14,38.56,38.56,0,0,1,15.33-2.87,46.37,46.37,0,0,1,11.39,1.44,57.13,57.13,0,0,1,10.93,3.93l-5.21,13.15a86.36,86.36,0,0,0-8.61-3.55A25.64,25.64,0,0,0,991.14,649.32Z"/><path class="cls-2" d="M1026.81,713.2V637H1043V713.2Z"/><path class="cls-2" d="M1094.09,613.44a50.52,50.52,0,0,0,3.94,5.31q2.42,2.93,5,5.69c1.7,1.84,3.18,3.41,4.43,4.69v1.41H1096.9c-1.87-1.11-3.92-2.44-6.12-4a40.35,40.35,0,0,1-6.08-5.19,44.59,44.59,0,0,1-6,5.14q-3.18,2.26-5.94,4h-10.59v-1.41q2-2,4.54-4.72t5-5.66a46.2,46.2,0,0,0,3.86-5.31Zm12,99.76h-43.91V637h43.91V650.2h-27.74v16.74h25.81v13.25h-25.81v19.66h27.74Z"/><path class="cls-2" d="M1189.63,713.2h-20.55l-33.16-57.68h-.47c.13,2.4.26,4.82.36,7.25s.21,4.86.31,7.28.21,4.84.32,7.27V713.2H1122V637h20.39l33.12,57.1h.37c-.08-2.36-.16-4.71-.27-7s-.2-4.65-.28-7-.17-4.66-.24-7V637h14.55Z"/><path class="cls-2" d="M1241.21,649.32a18,18,0,0,0-8.21,1.8,16.39,16.39,0,0,0-6,5.19,24.7,24.7,0,0,0-3.68,8.18,43.06,43.06,0,0,0-1.25,10.8,41.69,41.69,0,0,0,2,13.79,17.39,17.39,0,0,0,6.23,8.71q4.23,3,10.9,3a42.85,42.85,0,0,0,9.31-1,92.55,92.55,0,0,0,10.15-3v13.56a50.63,50.63,0,0,1-10,3,61.13,61.13,0,0,1-11,.91q-11.79,0-19.38-4.88a29.08,29.08,0,0,1-11.24-13.66,53.31,53.31,0,0,1-3.65-20.53,51,51,0,0,1,2.35-15.85,35.87,35.87,0,0,1,6.89-12.46,30.25,30.25,0,0,1,11.21-8.14,38.56,38.56,0,0,1,15.33-2.87,46.51,46.51,0,0,1,11.4,1.44,57,57,0,0,1,10.92,3.93l-5.21,13.15a85.39,85.39,0,0,0-8.61-3.55A25.6,25.6,0,0,0,1241.21,649.32Z"/><path class="cls-2" d="M1276.88,713.2V637h16.17V713.2Z"/><path class="cls-2" d="M1358.92,713.2l-5.53-18.14H1325.6l-5.53,18.14h-17.42l26.91-76.56h19.77l27,76.56Zm-9.39-31.7L1344,663.76c-.35-1.18-.81-2.7-1.39-4.56s-1.14-3.75-1.72-5.68-1-3.61-1.38-5c-.35,1.43-.83,3.19-1.43,5.3s-1.19,4.09-1.75,6l-1.2,4-5.48,17.74Z"/><path class="cls-2" d="M1431,692a20.11,20.11,0,0,1-12.86,19.51,38.6,38.6,0,0,1-15.26,2.71,57.82,57.82,0,0,1-7.74-.52,50,50,0,0,1-7.25-1.54,43.11,43.11,0,0,1-6.6-2.53v-15q5.43,2.4,11.27,4.33a36.9,36.9,0,0,0,11.58,1.93,16.23,16.23,0,0,0,6.38-1A7.29,7.29,0,0,0,1414,697a8,8,0,0,0,1.09-4.18,6.86,6.86,0,0,0-1.93-4.9,20.45,20.45,0,0,0-5.29-3.81q-3.36-1.77-7.59-3.8-2.65-1.26-5.79-3a32.81,32.81,0,0,1-6-4.41,21,21,0,0,1-4.61-6.34,20.39,20.39,0,0,1-1.8-8.94,21,21,0,0,1,3.13-11.68,19.91,19.91,0,0,1,8.94-7.44,33.71,33.71,0,0,1,13.75-2.58,45.63,45.63,0,0,1,11.34,1.38,74.2,74.2,0,0,1,11.29,4l-5.22,12.57a90.87,90.87,0,0,0-9.44-3.31,31.3,31.3,0,0,0-8.5-1.17,12.57,12.57,0,0,0-5.16,1A7.2,7.2,0,0,0,1399,653a7.49,7.49,0,0,0-1.1,4,6.76,6.76,0,0,0,1.59,4.56,16.79,16.79,0,0,0,4.8,3.57q3.21,1.73,8,4a62.84,62.84,0,0,1,10,5.76,21.6,21.6,0,0,1,6.39,7A20.42,20.42,0,0,1,1431,692Z"/><path class="cls-2" d="M609,825.42H565.13V749.17H609v13.25H581.29v16.74h25.82v13.25H581.29v19.66H609Z"/><path class="cls-2" d="M682.11,825.42H665.94V762.63H645.23V749.17h57.58v13.46h-20.7Z"/><path class="cls-2" d="M758.46,825.42H714.54V749.17h43.92v13.25H730.71v16.74h25.82v13.25H730.71v19.66h27.75Z"/><path class="cls-2" d="M806.75,761.53a18,18,0,0,0-8.21,1.8,16.31,16.31,0,0,0-6,5.19,24.66,24.66,0,0,0-3.68,8.19,43,43,0,0,0-1.25,10.79,41.79,41.79,0,0,0,2,13.8,17.33,17.33,0,0,0,6.23,8.71q4.23,3,10.9,3a42.26,42.26,0,0,0,9.31-1,87.63,87.63,0,0,0,10.14-3v13.56a50.34,50.34,0,0,1-10,3,60.23,60.23,0,0,1-11,.91q-11.79,0-19.38-4.87a29.1,29.1,0,0,1-11.24-13.67A53.29,53.29,0,0,1,771,787.4a51,51,0,0,1,2.35-15.85,35.92,35.92,0,0,1,6.89-12.47A30.34,30.34,0,0,1,791.42,751a38.39,38.39,0,0,1,15.33-2.87,47,47,0,0,1,11.4,1.43,57.75,57.75,0,0,1,10.92,3.94l-5.21,13.14a85.29,85.29,0,0,0-8.61-3.54A25.62,25.62,0,0,0,806.75,761.53Z"/><path class="cls-2" d="M910.07,825.42H889.52l-33.17-57.68h-.47c.14,2.4.26,4.81.36,7.25s.21,4.86.32,7.27.21,4.85.31,7.28v35.88H842.42V749.17h20.4l33.11,57.11h.37q-.1-3.54-.26-7c-.11-2.33-.2-4.66-.29-7s-.17-4.66-.23-7V749.17h14.55Z"/><path class="cls-2" d="M998.47,787.19a55.16,55.16,0,0,1-2.19,16,34.28,34.28,0,0,1-6.65,12.44,29.1,29.1,0,0,1-11.3,8,48.22,48.22,0,0,1-32.33,0,29,29,0,0,1-11.29-8,34.1,34.1,0,0,1-6.65-12.47,55.55,55.55,0,0,1-2.19-16.11,50.7,50.7,0,0,1,3.88-20.63,29.36,29.36,0,0,1,12-13.64q8.09-4.85,20.55-4.85t20.42,4.85a29.45,29.45,0,0,1,11.89,13.67A50.94,50.94,0,0,1,998.47,787.19Zm-55.65,0a41.83,41.83,0,0,0,2,13.74,17.75,17.75,0,0,0,6.28,8.87q4.27,3.11,11.06,3.1t11.16-3.1a17.5,17.5,0,0,0,6.23-8.87,43,43,0,0,0,2-13.74q0-12-4.49-18.88t-14.76-6.88q-6.82,0-11.13,3.1a17.72,17.72,0,0,0-6.31,8.87A42,42,0,0,0,942.82,787.19Z"/><path class="cls-2" d="M1014.27,825.42V749.17h16.17v62.9h30.92v13.35Z"/><path class="cls-2" d="M1143.82,787.19a55.16,55.16,0,0,1-2.19,16,34.13,34.13,0,0,1-6.65,12.44,29.14,29.14,0,0,1-11.29,8,48.25,48.25,0,0,1-32.34,0,29.06,29.06,0,0,1-11.29-8,34.1,34.1,0,0,1-6.65-12.47,55.55,55.55,0,0,1-2.19-16.11,50.53,50.53,0,0,1,3.89-20.63,29.29,29.29,0,0,1,12-13.64q8.09-4.85,20.55-4.85t20.42,4.85a29.45,29.45,0,0,1,11.89,13.67A50.94,50.94,0,0,1,1143.82,787.19Zm-55.65,0a41.83,41.83,0,0,0,2,13.74,17.81,17.81,0,0,0,6.28,8.87q4.27,3.11,11.06,3.1t11.16-3.1a17.5,17.5,0,0,0,6.23-8.87,43,43,0,0,0,2-13.74q0-12-4.49-18.88t-14.76-6.88q-6.82,0-11.13,3.1a17.78,17.78,0,0,0-6.31,8.87A42,42,0,0,0,1088.17,787.19Z"/><path class="cls-2" d="M1188.56,782.6h30.25v39.53a90.5,90.5,0,0,1-12.46,3.16,82.87,82.87,0,0,1-14.66,1.17q-11.37,0-19.29-4.48a28.81,28.81,0,0,1-12.05-13.25q-4.12-8.76-4.12-21.54,0-12,4.61-20.76a32.11,32.11,0,0,1,13.51-13.55q8.89-4.8,21.72-4.8a55.1,55.1,0,0,1,12,1.3,58.83,58.83,0,0,1,10.69,3.39l-5.38,12.93a40.9,40.9,0,0,0-8-3,36.18,36.18,0,0,0-9.39-1.2,22.6,22.6,0,0,0-12.23,3.24,21.47,21.47,0,0,0-8,9,30.79,30.79,0,0,0-2.85,13.69,39.58,39.58,0,0,0,2,13.23,18.63,18.63,0,0,0,6.41,9q4.38,3.25,11.43,3.26a41.37,41.37,0,0,0,5.81-.34c1.58-.23,3.07-.46,4.46-.71v-15.9h-14.45Z"/><path class="cls-2" d="M1237,825.42V749.17h16.17v76.25Z"/><path class="cls-2" d="M1319,825.42l-5.53-18.15h-27.8l-5.53,18.15h-17.41l26.91-76.56h19.76l27,76.56Zm-9.39-31.71L1304.08,776c-.34-1.18-.81-2.7-1.38-4.56s-1.15-3.76-1.72-5.69-1-3.61-1.38-5c-.35,1.42-.83,3.19-1.44,5.29s-1.19,4.1-1.74,6l-1.2,4-5.48,17.73Z"/></g></svg>